<?xml version="1.0" standalone="no"?>
<!DOCTYPE svg PUBLIC "-//W3C//DTD SVG 20010904//EN"
 "http://www.w3.org/TR/2001/REC-SVG-20010904/DTD/svg10.dtd">
<svg version="1.0" xmlns="http://www.w3.org/2000/svg"
 width="844.000000pt" height="844.000000pt" viewBox="0 0 844.000000 844.000000"
 preserveAspectRatio="xMidYMid meet">
<metadata>
Created by potrace 1.14, written by Peter Selinger 2001-2017
</metadata>
<g transform="translate(0.000000,844.000000) scale(0.100000,-0.100000)"
fill="#000000" stroke="none">
<path d="M2200 6790 l0 -220 -220 0 -220 0 0 -220 0 -220 -220 0 -220 0 0
-435 0 -435 -220 0 -220 0 0 -2630 0 -2630 440 0 440 0 2 1313 3 1312 217 3
218 2 2 658 3 657 213 3 212 2 0 220 0 220 880 0 880 0 0 215 0 215 -660 0
-660 0 2 223 3 222 437 3 438 2 2 213 3 212 220 0 220 0 3 -432 2 -433 435 0
435 0 0 435 0 435 223 -2 222 -3 3 -437 2 -438 -220 0 -220 0 0 -220 0 -220
-440 0 -440 0 -2 -217 -3 -218 -883 -3 -882 -2 2 -878 3 -877 438 -3 437 -2 0
-215 0 -215 -220 0 -220 0 0 -220 0 -220 -220 0 -220 0 0 -655 0 -655 220 0
220 0 0 435 0 435 220 0 220 0 0 220 0 220 220 0 220 0 0 655 0 655 -437 2
-438 3 -3 438 -2 437 1535 0 1535 0 2 -657 3 -658 217 -3 218 -2 2 -213 3
-212 217 -3 218 -2 2 -218 3 -217 217 -3 218 -2 2 -438 3 -437 218 -3 217 -2
0 660 0 660 -217 2 -218 3 -3 212 -2 213 -218 2 -217 3 -3 217 -2 218 -218 2
-217 3 -3 658 -2 657 220 0 220 0 0 440 0 440 -217 2 -218 3 -3 652 -2 653
-218 2 -217 3 -3 217 -2 218 -653 2 -652 3 -3 218 -2 217 -1315 0 -1315 0 0
-220z m880 -440 l0 -220 -220 0 -220 0 0 -220 0 -220 -440 0 -440 0 0 220 0
220 220 0 220 0 0 220 0 220 440 0 440 0 0 -220z m1310 0 l0 -220 -220 0 -220
0 0 220 0 220 220 0 220 0 0 -220z m1750 -2185 l0 -225 -215 0 -215 0 0 218
c0 120 3 222 7 225 3 4 100 7 215 7 l208 0 0 -225z m-4372 -662 l2 -443 -225
0 -225 0 0 438 c0 241 3 442 7 446 4 3 104 5 222 4 l216 -3 3 -442z"/>
</g>
</svg>
